<svg width="26" height="26" viewBox="0 0 26 26" fill="none" xmlns="http://www.w3.org/2000/svg">
<path d="M12.5181 3.91295L12.6026 3.91815H15.5874L15.6563 3.91425C16.0263 3.87379 16.3997 3.87641 16.7691 3.92205C17.264 3.94614 17.7469 4.08309 18.1809 4.32245C18.9999 4.69425 19.7149 5.29355 20.2245 6.07745C20.6942 6.79781 20.9599 7.63202 20.9933 8.49134C21.0267 9.35066 20.8266 10.203 20.4143 10.9577L16.2348 6.72485C16.1742 6.66375 16.1021 6.61528 16.0227 6.58225C15.9432 6.54922 15.858 6.5323 15.772 6.53245H14.0417C13.9 6.53226 13.7621 6.57837 13.6491 6.66375L10.8567 8.77885C10.6859 8.9078 10.4888 8.99739 10.2794 9.0412C10.0699 9.08501 9.85342 9.08196 9.64531 9.03226C9.4372 8.98256 9.24266 8.88745 9.07563 8.75374C8.9086 8.62003 8.77321 8.45103 8.67916 8.25885C8.53521 7.96195 8.49877 7.62428 8.57606 7.3035C8.65335 6.98272 8.83958 6.69871 9.10296 6.49995L12.5181 3.91295ZM7.32196 15.4244L7.30376 15.4413L6.31186 16.4293L6.29496 16.4449C6.14734 16.5833 5.95174 16.6589 5.74945 16.6557C5.54716 16.6526 5.354 16.5709 5.21076 16.4281C5.13824 16.3567 5.08065 16.2716 5.04134 16.1777C5.00203 16.0839 4.98178 15.9832 4.98178 15.8814C4.98178 15.7796 5.00203 15.6789 5.04134 15.5851C5.08065 15.4912 5.13824 15.4061 5.21076 15.3347L6.20396 14.348C6.35016 14.2024 6.54813 14.1206 6.75451 14.1206C6.9609 14.1206 7.15887 14.2024 7.30506 14.348C7.60406 14.6444 7.60926 15.1215 7.32196 15.4244ZM7.21666 17.3614C6.93066 17.6643 6.93586 18.1414 7.23356 18.4378C7.37976 18.5835 7.57773 18.6653 7.78411 18.6653C7.9905 18.6653 8.18847 18.5835 8.33466 18.4378L9.32786 17.4511C9.40935 17.3704 9.47174 17.2724 9.51046 17.1644C9.54919 17.0564 9.56327 16.941 9.55168 16.8269C9.54009 16.7127 9.50312 16.6026 9.44348 16.5046C9.38383 16.4066 9.30302 16.3231 9.20696 16.2604C9.06084 16.1638 8.8865 16.1193 8.712 16.1339C8.5375 16.1486 8.37299 16.2215 8.24496 16.3409L8.22676 16.3579L7.23486 17.3445L7.21666 17.3614ZM4.87406 12.7439C4.94658 12.8152 5.00418 12.9003 5.04349 12.9942C5.0828 13.088 5.10305 13.1887 5.10305 13.2905C5.10305 13.3923 5.0828 13.493 5.04349 13.5868C5.00418 13.6807 4.94658 13.7658 4.87406 13.8372L3.88086 14.8238C3.73467 14.9695 3.5367 15.0513 3.33031 15.0513C3.12393 15.0513 2.92596 14.9695 2.77976 14.8238C2.70724 14.7525 2.64965 14.6674 2.61034 14.5735C2.57103 14.4797 2.55078 14.379 2.55078 14.2772C2.55078 14.1754 2.57103 14.0747 2.61034 13.9809C2.64965 13.887 2.70724 13.8019 2.77976 13.7306L3.77296 12.7426C3.91916 12.5969 4.11713 12.5151 4.32351 12.5151C4.5299 12.5151 4.72787 12.5969 4.87406 12.7426M11.3507 18.3664C11.4232 18.4377 11.4808 18.5228 11.5201 18.6167C11.5594 18.7105 11.5796 18.8112 11.5796 18.913C11.5796 19.0148 11.5594 19.1155 11.5201 19.2093C11.4808 19.3032 11.4232 19.3883 11.3507 19.4596L10.3575 20.4476C10.2113 20.5933 10.0133 20.6751 9.80691 20.6751C9.60053 20.6751 9.40256 20.5933 9.25636 20.4476C9.13227 20.3254 9.05346 20.1646 9.03291 19.9917C9.01235 19.8187 9.05127 19.6439 9.14326 19.496L9.14716 19.4908C9.17825 19.4409 9.21489 19.3947 9.25636 19.353L10.2496 18.3664C10.3958 18.2207 10.5937 18.1389 10.8001 18.1389C11.0065 18.1389 11.2045 18.2207 11.3507 18.3664ZM4.59066 5.71995C5.3135 5.00203 6.20241 4.47369 7.17848 4.18182C8.15454 3.88995 9.18757 3.84359 10.1859 4.04685L8.31776 5.46385C8.03142 5.68081 7.79078 5.95223 7.60968 6.26251C7.42859 6.57279 7.31061 6.9158 7.26253 7.27183C7.21445 7.62785 7.23721 7.98987 7.32951 8.33707C7.42181 8.68427 7.58183 9.0098 7.80036 9.29495C8.2424 9.87153 8.89459 10.2498 9.61455 10.3472C10.3345 10.4447 11.0638 10.2533 11.6432 9.81495L14.2614 7.83245H15.4431L17.9625 10.3349L17.9677 10.3285L20.0581 12.4462L20.0893 12.4761L21.2138 13.6005C21.452 13.8416 21.5889 14.1648 21.5964 14.5036C21.6038 14.8425 21.4812 15.1713 21.2537 15.4226C21.0262 15.6739 20.7112 15.8285 20.3732 15.8547C20.0353 15.8809 19.7002 15.7767 19.4367 15.5635L19.3418 15.4699L19.2716 15.4088L18.1666 14.3039C18.0447 14.1818 17.8793 14.1132 17.7068 14.113C17.5343 14.1129 17.3689 14.1813 17.2468 14.3032C17.1248 14.4251 17.0561 14.5905 17.056 14.7629C17.0559 14.9354 17.1243 15.1009 17.2462 15.2229L18.4188 16.3955C18.4638 16.4389 18.5093 16.4809 18.5553 16.5216L18.5943 16.5606C18.7629 16.7291 18.8576 16.9576 18.8578 17.1959C18.8579 17.4342 18.7633 17.6628 18.5949 17.8314C18.4265 18 18.198 18.0948 17.9597 18.0949C17.7214 18.095 17.4928 18.0005 17.3242 17.832L17.1513 17.6604C17.0598 17.5693 16.9433 17.5074 16.8165 17.4827C16.6898 17.458 16.5586 17.4717 16.4396 17.5219C16.3206 17.5721 16.2193 17.6566 16.1485 17.7646C16.0778 17.8727 16.0408 17.9993 16.0424 18.1284C16.0407 18.2158 16.0566 18.3027 16.0892 18.3837C16.1218 18.4648 16.1704 18.5385 16.2322 18.6003L16.4597 18.8278C16.5359 18.9041 16.5964 18.9946 16.6376 19.0942C16.6789 19.1938 16.7001 19.3005 16.7001 19.4083C16.7001 19.5161 16.6789 19.6228 16.6376 19.7224C16.5964 19.822 16.5359 19.9125 16.4597 19.9888C16.3834 20.065 16.2929 20.1254 16.1934 20.1667C16.0938 20.2079 15.987 20.2292 15.8792 20.2292C15.7714 20.2292 15.6647 20.2079 15.5651 20.1667C15.4655 20.1254 15.375 20.065 15.2988 19.9888L15.1831 19.8717C15.1435 19.8257 15.1023 19.781 15.0596 19.7378L14.8477 19.526C14.7251 19.4075 14.5609 19.342 14.3905 19.3435C14.22 19.345 14.057 19.4134 13.9365 19.5339C13.816 19.6544 13.7476 19.8174 13.7461 19.9878C13.7446 20.1583 13.8102 20.3225 13.9286 20.445L14.0872 20.6036C14.1071 20.6297 14.1288 20.6552 14.1522 20.6803L14.2159 20.7428C14.3455 20.911 14.4068 21.122 14.3876 21.3335C14.3683 21.545 14.2698 21.7414 14.1118 21.8834C13.9539 22.0254 13.7481 22.1025 13.5358 22.0993C13.3234 22.0961 13.1201 22.0127 12.9666 21.8659L11.8421 20.8064L12.2737 20.3774C12.4668 20.186 12.6201 19.9582 12.7247 19.7072C12.8294 19.4562 12.8832 19.1869 12.8832 18.9149C12.8832 18.643 12.8294 18.3737 12.7247 18.1227C12.6201 17.8717 12.4668 17.6439 12.2737 17.4524C11.897 17.0771 11.3908 16.8604 10.8593 16.8466C10.8449 16.3178 10.6269 15.8148 10.2509 15.4426C9.87449 15.0676 9.36888 14.8509 8.83776 14.8369C8.82301 14.3078 8.6046 13.8048 8.22806 13.4329C7.98747 13.1925 7.6916 13.0147 7.36637 12.9152C7.04114 12.8157 6.69647 12.7975 6.36256 12.8622C6.27784 12.4699 6.08144 12.1105 5.79706 11.8273C5.43077 11.4647 4.94356 11.25 4.42876 11.2243C3.91397 11.1987 3.40781 11.3639 3.00726 11.6883C2.71657 10.6425 2.7103 9.53812 2.98912 8.48915C3.26793 7.44018 3.82171 6.48465 4.59326 5.72125" fill="white"/>
</svg>
