<svg width="46" height="46" viewBox="0 0 46 46" fill="none" xmlns="http://www.w3.org/2000/svg">
<circle cx="23.0174" cy="22.9684" r="22.3238" stroke="#D3D3D3" stroke-width="0.842407"/>
<path d="M21.3415 29.6332C21.3636 29.6606 21.3725 29.6941 21.3689 29.726C21.3653 29.7579 21.349 29.7887 21.321 29.8103L20.1805 30.6993C20.1249 30.7429 20.0438 30.734 19.9993 30.6793L18.5944 28.9595L18.7555 28.7526L19.0825 28.498L19.2433 28.6948L18.9164 28.9497L19.0966 29.1707L19.566 28.8046L19.7271 29.0017L19.2577 29.3675L19.4379 29.5884L19.7648 29.3334L19.9256 29.5305L19.5987 29.7852L19.7792 30.0061L20.2487 29.6403L20.4095 29.8371L19.94 30.2029L20.1205 30.4238L21.0594 29.6919L19.4 27.6606L19.5425 27.431L21.3415 29.6332ZM17.0283 27.0425L17.4103 26.4267C17.4209 26.4097 17.3993 26.3911 17.3833 26.4035L17.049 26.664L16.8685 26.4431L17.1955 26.1884L17.0346 25.9913L16.7077 26.2463L16.5272 26.0254L16.9967 25.6595L16.8359 25.4625L16.3664 25.8285L16.1862 25.6076L16.5131 25.3527L16.352 25.1558L16.0251 25.4105L15.8449 25.1899L16.3144 24.8238L16.1535 24.627L15.6841 24.9928L15.5036 24.7722L15.8305 24.5172L15.6697 24.3204L15.3428 24.5751L15.1623 24.3542L15.6318 23.9884L15.471 23.7915L15.0015 24.1573L14.821 23.9364L15.1479 23.6818L14.9871 23.4849L14.6602 23.7396L14.3189 23.3219L14.3543 23.0134C14.3704 22.8755 14.4401 22.7519 14.5511 22.6654C14.6621 22.5789 14.8008 22.5399 14.942 22.5554L15.2578 22.59L17.8341 25.7436L17.9763 25.5141L15.4261 22.3921C15.3472 22.295 15.0856 22.3177 14.9708 22.305C14.7612 22.282 14.555 22.3402 14.3903 22.4686C14.2253 22.597 14.1215 22.7803 14.098 22.9853C14.0853 23.0969 14.0064 23.344 14.0839 23.4381L17.0283 27.0425ZM16.1156 30.7348L17.597 29.8422L16.2397 29.0389L16.1156 30.7348ZM21.882 22.9294C21.9874 22.7594 21.9318 22.5381 21.7577 22.435L21.0356 22.0077C20.8615 21.9046 20.6349 21.9589 20.5295 22.129L20.2272 22.6162L21.5797 23.4166L21.882 22.9294ZM17.8237 29.4715L21.3521 23.7836L19.9996 22.9832L16.4712 28.671L17.8237 29.4715ZM23.6891 27.1199V25.5703C23.6891 25.4443 23.7941 25.3418 23.9231 25.3418H25.0568L25.1601 25.0978L24.3586 24.315C24.3144 24.2718 24.29 24.2146 24.29 24.1534C24.29 24.0925 24.3144 24.035 24.3586 23.9919L25.4803 22.8962C25.5245 22.853 25.5834 22.8292 25.6457 22.8292C25.7081 22.8292 25.7669 22.853 25.8111 22.8962L26.6126 23.6791L26.8623 23.5782V22.4709C26.8623 22.3448 26.9673 22.2423 27.0963 22.2423H28.6828C28.8119 22.2423 28.9168 22.3448 28.9168 22.4709V23.5782L29.1665 23.6791L29.9661 22.8981C30.0117 22.8567 30.071 22.834 30.1334 22.834C30.1958 22.834 30.2549 22.8567 30.3004 22.8981L31.4205 23.9919C31.4647 24.035 31.4891 24.0925 31.4891 24.1534C31.4891 24.2146 31.4647 24.2718 31.4205 24.315L30.619 25.0978L30.7224 25.3418H31.856C31.985 25.3418 32.09 25.4443 32.09 25.5703V27.1199C32.09 27.246 31.985 27.3485 31.856 27.3485H30.7224L30.619 27.5924L31.4205 28.3753C31.5116 28.4643 31.5116 28.6094 31.4205 28.6984L30.2988 29.7941C30.2546 29.8372 30.1958 29.8611 30.1334 29.8611C30.0708 29.8611 30.0122 29.8372 29.968 29.7941L29.1665 29.0112L28.9168 29.1121V30.2194C28.9168 30.3454 28.8119 30.448 28.6828 30.448H27.0963C26.9673 30.448 26.8623 30.3454 26.8623 30.2194V29.1121L26.6126 29.0112L25.813 29.7922C25.7675 29.8338 25.7081 29.8566 25.6457 29.8566C25.5834 29.8566 25.524 29.8338 25.4784 29.7922L24.3586 28.6984C24.2675 28.6094 24.2675 28.4643 24.3586 28.3753L25.1601 27.5924L25.0568 27.3485H23.9231C23.7941 27.3485 23.6891 27.246 23.6891 27.1199ZM24.1571 26.8914H25.2298C25.3323 26.8914 25.4245 26.9586 25.4537 27.0551C25.5025 27.2166 25.5692 27.3752 25.6522 27.5262C25.7016 27.6149 25.685 27.7259 25.6124 27.7969L24.8548 28.5368L25.6457 29.3094L26.4033 28.5694C26.4475 28.5262 26.5061 28.5024 26.5687 28.5024C26.6072 28.5024 26.6457 28.5122 26.6799 28.5302C26.8347 28.6115 26.9971 28.6767 27.1633 28.7246C27.2615 28.753 27.3301 28.843 27.3301 28.9431V29.9909H28.4488V28.9431C28.4488 28.843 28.5177 28.753 28.6161 28.7243C28.7818 28.6767 28.9444 28.6115 29.0985 28.5305C29.1334 28.5122 29.1717 28.5024 29.2104 28.5024C29.2728 28.5024 29.3316 28.5262 29.3758 28.5694L30.1331 29.3094L30.9243 28.5368L30.1668 27.7969C30.0941 27.7259 30.0776 27.6149 30.1266 27.5267C30.2096 27.3755 30.2766 27.2169 30.3254 27.0545C30.3547 26.9586 30.4469 26.8914 30.5494 26.8914H31.622V25.7989H30.5494C30.4469 25.7989 30.3547 25.7316 30.3254 25.6355C30.2766 25.4734 30.2096 25.3148 30.1269 25.1643C30.0776 25.0753 30.0941 24.9644 30.1668 24.8934L30.9243 24.1537L30.1331 23.3809L29.3758 24.1209C29.3316 24.164 29.2728 24.1879 29.2104 24.1879C29.1717 24.1879 29.1334 24.1783 29.0993 24.16C28.9444 24.079 28.7818 24.0136 28.6158 23.9659C28.5177 23.9373 28.4488 23.8473 28.4488 23.7472V22.6994H27.3301V23.7472C27.3301 23.8473 27.2615 23.9373 27.1628 23.9659C26.9971 24.0136 26.8347 24.079 26.6804 24.1598C26.6457 24.1783 26.6072 24.1879 26.5687 24.1879C26.5061 24.1879 26.4475 24.164 26.4033 24.1209L25.6457 23.3809L24.8548 24.1537L25.6124 24.8934C25.685 24.9644 25.7016 25.0753 25.6525 25.1635C25.5692 25.315 25.5025 25.4737 25.4535 25.6357C25.4245 25.7316 25.3323 25.7989 25.2298 25.7989H24.1571V26.8914ZM26.8827 27.3286C26.4741 26.9295 26.3529 26.3347 26.5741 25.8129C26.7954 25.2914 27.3116 24.9543 27.8894 24.9543C28.6746 24.9543 29.3135 25.5783 29.3135 26.3453C29.3135 26.9096 28.9683 27.4139 28.4344 27.63C28.2606 27.7002 28.0773 27.736 27.89 27.736C27.5095 27.736 27.1516 27.5914 26.8827 27.3286ZM27.0063 26.7025C27.1546 27.0527 27.5014 27.2788 27.8894 27.2788C28.4165 27.2788 28.8455 26.8601 28.8455 26.3453C28.8455 25.966 28.6139 25.6275 28.2555 25.4824C28.1389 25.4353 28.0158 25.4114 27.8897 25.4114C27.634 25.4114 27.394 25.5086 27.2135 25.685C26.9391 25.9528 26.8577 26.3521 27.0063 26.7025ZM37.4437 13.2791V32.6577C37.4437 33.3535 36.8641 33.9197 36.1517 33.9197H9.98854C9.27611 33.9197 8.69653 33.3535 8.69653 32.6577V13.2791C8.69653 12.5832 9.27611 12.0171 9.98854 12.0171H36.1517C36.8641 12.0171 37.4437 12.5832 37.4437 13.2791ZM36.1147 20.1519H10.0255V32.6215H36.1147V20.1519ZM36.1147 13.3152H10.0255V18.8538H36.1147V13.3152ZM13.58 17.5126C14.3887 17.5126 15.0442 16.8723 15.0442 16.0824C15.0442 15.2926 14.3887 14.6523 13.58 14.6523C12.7714 14.6523 12.1159 15.2926 12.1159 16.0824C12.1159 16.8723 12.7714 17.5126 13.58 17.5126ZM18.081 17.5126C18.8897 17.5126 19.5452 16.8723 19.5452 16.0824C19.5452 15.2926 18.8897 14.6523 18.081 14.6523C17.2724 14.6523 16.6169 15.2926 16.6169 16.0824C16.6169 16.8723 17.2724 17.5126 18.081 17.5126ZM22.582 17.5126C23.3907 17.5126 24.0462 16.8723 24.0462 16.0824C24.0462 15.2926 23.3907 14.6523 22.582 14.6523C21.7734 14.6523 21.1179 15.2926 21.1179 16.0824C21.1179 16.8723 21.7734 17.5126 22.582 17.5126Z" fill="#2563EB"/>
</svg>
