<svg width="46" height="47" viewBox="0 0 46 47" fill="none" xmlns="http://www.w3.org/2000/svg">
<circle cx="23.0174" cy="23.4757" r="22.3238" stroke="#D3D3D3" stroke-width="0.842407"/>
<g clip-path="url(#clip0_1636_4382)">
<path d="M31.9257 29.9655C31.928 30.1774 31.8733 30.4544 31.8164 30.6828C31.4188 32.289 29.6531 34.0914 27.1678 33.9274C24.9154 33.7791 23.0808 32.6979 23.0808 31.1815C23.0808 29.6652 24.9109 28.4357 27.1678 28.4357C29.4247 28.4357 31.9115 28.4491 31.9257 29.9655Z" fill="#193167"/>
<path d="M27.1669 28.6904C25.9546 28.6904 23.1877 29.0258 22.5528 29.0258C21.431 29.0258 20.5212 29.7297 20.5212 30.5983C20.5212 31.0162 20.7354 31.3936 21.0784 31.6751C21.0784 31.6751 21.8317 32.4307 23.1885 32.0682C23.7823 31.9095 24.7483 30.7309 26.4488 30.5437C27.2957 30.4501 28.8824 31.1053 31.671 31.121C31.7908 30.8634 31.8155 30.6844 31.8155 30.6844C31.8155 29.1666 29.4238 28.6904 27.1669 28.6904Z" fill="#F4F4F4"/>
<path d="M31.8158 30.6829C31.8158 30.6829 33.4512 30.3511 34.468 29.0138C35.6534 27.454 35.4976 25.7849 35.4976 25.7849C36.6987 23.5385 35.1232 21.4321 35.1232 21.4321C34.9667 19.0606 33.5006 18.0782 33.5006 18.0782C32.5488 15.8161 30.4432 15.208 30.4432 15.208C28.7898 13.2739 25.8568 13.336 25.8568 13.336C25.8568 13.336 23.1086 12.3289 19.3362 13.4611C18.7124 13.6483 16.6217 14.0848 15.0927 15.0208C10.2734 17.9711 9.90869 22.5718 9.97608 23.3199C10.3497 27.5004 13.2828 28.2493 15.1548 28.6858C15.5914 29.8712 17.1983 32.0554 20.0842 31.2445C23.641 30.6207 25.1387 29.5597 26.0125 29.5597C26.8864 29.5597 29.32 30.4957 31.8158 30.6829Z" fill="#2563EB"/>
<path d="M22.8204 23.9609C24.5636 23.0211 25.5086 23.1087 26.3428 23.1844C26.6078 23.2083 26.8587 23.2271 27.1125 23.2256C28.5982 23.1919 29.8015 22.5659 30.3339 21.9601C30.3949 21.8848 30.4245 21.7888 30.4163 21.6922C30.4082 21.5957 30.363 21.506 30.2902 21.442C30.2174 21.378 30.1227 21.3447 30.0258 21.349C29.929 21.3533 29.8376 21.3949 29.7708 21.4651C29.3604 21.9324 28.3488 22.4483 27.0953 22.4768C26.8707 22.4835 26.6453 22.461 26.4116 22.4393C25.5168 22.3562 24.4056 22.2544 22.4647 23.3019C21.9667 23.5708 21.2838 23.6704 20.544 23.7452C18.8989 21.3708 19.8888 19.3026 20.1718 18.8099C20.1995 18.8114 20.2265 18.8203 20.255 18.8203C20.5545 18.8203 20.8555 18.747 21.1281 18.5927C21.2111 18.5421 21.2712 18.4613 21.2957 18.3672C21.3202 18.2731 21.3071 18.1732 21.2593 18.0886C21.2114 18.004 21.1325 17.9413 21.0393 17.9138C20.946 17.8863 20.8458 17.8961 20.7597 17.9412C20.5241 18.0709 20.2483 18.1069 19.9873 18.0421C19.7263 17.9773 19.4994 17.8164 19.3519 17.5915C19.2962 17.513 19.2124 17.459 19.1179 17.4406C19.0234 17.4222 18.9255 17.441 18.8445 17.4929C18.7634 17.5448 18.7055 17.626 18.6827 17.7195C18.6599 17.8131 18.6741 17.9118 18.7222 17.9952C18.8996 18.273 19.1497 18.4819 19.432 18.6219C19.0419 19.4141 18.3013 21.4973 19.7106 23.8269C18.7192 23.9242 17.7262 24.0642 16.949 24.5652C16.4029 24.9234 15.9264 25.3778 15.5427 25.9063C15.0717 25.8254 13.3472 25.4008 13.0462 23.4869C13.2334 23.3416 13.3847 23.1499 13.4783 22.9133C13.4964 22.8676 13.5053 22.8187 13.5045 22.7696C13.5037 22.7204 13.4932 22.6719 13.4737 22.6267C13.4542 22.5816 13.4259 22.5408 13.3906 22.5066C13.3553 22.4724 13.3136 22.4454 13.2678 22.4273C13.2221 22.4092 13.1733 22.4003 13.1241 22.4011C13.0749 22.4019 13.0264 22.4124 12.9813 22.4319C12.9362 22.4514 12.8953 22.4797 12.8611 22.515C12.8269 22.5503 12.8 22.592 12.7819 22.6378C12.7536 22.7165 12.7086 22.7882 12.6499 22.8478C12.5912 22.9074 12.5202 22.9535 12.4419 22.9829C12.3626 23.0092 12.2785 23.018 12.1955 23.009C12.1124 23 12.0323 22.9732 11.9604 22.9305C11.9175 22.9066 11.8702 22.8914 11.8214 22.8858C11.7725 22.8802 11.723 22.8842 11.6757 22.8977C11.5803 22.925 11.4995 22.989 11.4512 23.0758C11.403 23.1626 11.3912 23.265 11.4184 23.3605C11.4457 23.456 11.5097 23.5367 11.5965 23.585C11.8092 23.7033 12.0368 23.7632 12.2629 23.7632C12.2907 23.7632 12.3169 23.7505 12.3446 23.749C12.701 25.5558 14.129 26.3496 15.1391 26.5899C15.007 26.8715 14.9232 27.1732 14.8913 27.4825C14.8825 27.5814 14.9134 27.6797 14.9772 27.7558C15.0409 27.832 15.1323 27.8796 15.2312 27.8884L15.2649 27.8899C15.3585 27.8899 15.4487 27.8548 15.5177 27.7916C15.5867 27.7284 15.6296 27.6416 15.6378 27.5484C15.7187 26.6401 16.5851 25.6914 17.3548 25.1934C18.0767 24.7284 19.1332 24.6303 20.1561 24.5352C21.1483 24.4446 22.0858 24.3578 22.8204 23.9609ZM32.4545 22.8347C32.4068 22.9219 32.3958 23.0244 32.4237 23.1198C32.4517 23.2151 32.5163 23.2955 32.6035 23.3431C32.6907 23.3908 32.7933 23.4019 32.8886 23.3739C32.984 23.346 33.0643 23.2813 33.112 23.1941C33.1262 23.1687 34.4913 20.6115 31.9356 18.893C31.8532 18.8376 31.7521 18.8172 31.6547 18.8363C31.5572 18.8554 31.4713 18.9124 31.4159 18.9948C31.3605 19.0772 31.3401 19.1783 31.3592 19.2757C31.3783 19.3732 31.4353 19.4591 31.5178 19.5145C33.4976 20.8459 32.4979 22.7538 32.4545 22.8347ZM16.934 16.7888C16.9934 16.7888 17.0519 16.7747 17.1048 16.7476C17.1577 16.7206 17.2033 16.6813 17.238 16.6331C18.3238 15.1227 19.8274 15.6394 19.891 15.6634C19.9833 15.6938 20.0837 15.6872 20.1712 15.645C20.2586 15.6028 20.3263 15.5282 20.3598 15.4371C20.3933 15.3459 20.3901 15.2453 20.3508 15.1565C20.3116 15.0677 20.2393 14.9976 20.1494 14.961C19.4305 14.6944 17.7704 14.6105 16.63 16.1965C16.59 16.2525 16.5661 16.3183 16.5611 16.3869C16.556 16.4555 16.5699 16.5242 16.6014 16.5854C16.6328 16.6466 16.6804 16.6979 16.7391 16.7338C16.7978 16.7697 16.8652 16.7887 16.934 16.7888ZM26.7224 15.3751C28.3885 15.2395 29.1463 16.4474 29.1807 16.5043C29.2311 16.59 29.3134 16.6522 29.4096 16.6772C29.4572 16.6895 29.5068 16.6924 29.5556 16.6856C29.6043 16.6788 29.6512 16.6625 29.6937 16.6376C29.7361 16.6126 29.7732 16.5796 29.8029 16.5403C29.8325 16.5011 29.8542 16.4563 29.8665 16.4087C29.8789 16.3611 29.8818 16.3115 29.875 16.2627C29.8682 16.214 29.8519 16.1671 29.8269 16.1246C29.7865 16.0565 28.8235 14.4638 26.664 14.6285C26.615 14.6324 26.5672 14.6458 26.5234 14.6681C26.4795 14.6904 26.4405 14.7211 26.4086 14.7585C26.3441 14.834 26.3122 14.932 26.3199 15.031C26.3277 15.13 26.3744 15.2219 26.4499 15.2864C26.5254 15.3509 26.6234 15.3828 26.7224 15.3751ZM33.574 26.3159C33.3898 26.3054 33.1868 26.4514 33.1704 26.6581C33.1689 26.6716 33.0498 27.9453 31.7401 28.3759C31.6545 28.4028 31.5814 28.4596 31.5343 28.536C31.4871 28.6123 31.469 28.7031 31.4832 28.7917C31.4975 28.8803 31.5432 28.9609 31.612 29.0186C31.6807 29.0763 31.768 29.1073 31.8577 29.1059C31.8974 29.1059 31.9368 29.0996 31.9745 29.0872C33.7507 28.5046 33.9109 26.7929 33.9169 26.7202C33.921 26.6712 33.9154 26.6218 33.9004 26.5748C33.8853 26.5279 33.8612 26.4845 33.8294 26.4469C33.7975 26.4093 33.7585 26.3784 33.7147 26.3559C33.6709 26.3335 33.6231 26.3199 33.574 26.3159Z" fill="#193167"/>
<path d="M15.0402 22.6774C15.0255 22.7254 15.0206 22.7759 15.0258 22.8259C15.031 22.8759 15.0462 22.9243 15.0705 22.9683C15.0948 23.0122 15.1277 23.0509 15.1673 23.0819C15.2068 23.1128 15.2522 23.1355 15.3007 23.1486C15.3493 23.1617 15.3999 23.1649 15.4497 23.1579C15.4995 23.151 15.5473 23.1342 15.5904 23.1084C15.6335 23.0826 15.671 23.0483 15.7006 23.0077C15.7302 22.9671 15.7514 22.921 15.7628 22.8721C15.8349 22.6126 16.0025 22.3901 16.232 22.2492C16.4615 22.1084 16.7358 22.0596 16.9998 22.1128C17.0479 22.1228 17.0976 22.1233 17.1459 22.1142C17.1943 22.1051 17.2403 22.0866 17.2815 22.0597C17.3226 22.0328 17.3581 21.998 17.3858 21.9574C17.4136 21.9168 17.433 21.8711 17.4431 21.823C17.4532 21.7748 17.4537 21.7252 17.4446 21.6769C17.4355 21.6285 17.4169 21.5825 17.39 21.5413C17.3631 21.5002 17.3284 21.4647 17.2877 21.437C17.2471 21.4092 17.2015 21.3898 17.1533 21.3797C16.8417 21.3163 16.5188 21.3386 16.2188 21.4441C15.3457 19.951 15.5157 18.4788 15.5179 18.4631C15.5311 18.3647 15.5047 18.2651 15.4444 18.1862C15.3842 18.1072 15.2951 18.0555 15.1967 18.0423C15.0986 18.0296 14.9995 18.0561 14.9208 18.1159C14.842 18.1757 14.79 18.2641 14.7759 18.362C14.7661 18.4346 14.5662 20.0962 15.5718 21.817C15.3159 22.047 15.1314 22.3456 15.0402 22.6774ZM23.4111 20.8278C23.5606 20.692 23.756 20.6176 23.958 20.6197C24.1601 20.6218 24.3539 20.7002 24.5006 20.839C24.5719 20.9082 24.6677 20.9461 24.767 20.9446C24.8663 20.943 24.9609 20.9021 25.03 20.8308C25.0992 20.7596 25.1373 20.6638 25.1359 20.5646C25.1345 20.4653 25.0937 20.3706 25.0225 20.3014C24.8534 20.1404 24.6491 20.0212 24.4257 19.9532C24.6474 19.1924 24.5598 18.8547 24.3538 18.222C24.3131 18.0982 24.2739 17.9739 24.2363 17.8491L24.2138 17.7742C23.9412 16.8696 23.7608 16.2728 24.279 15.4304C24.331 15.3458 24.3473 15.244 24.3243 15.1474C24.3012 15.0508 24.2408 14.9673 24.1562 14.9152C24.0715 14.8632 23.9697 14.8469 23.8731 14.8699C23.7765 14.893 23.693 14.9534 23.641 15.038C22.9461 16.1672 23.2014 17.0126 23.4972 17.9913L23.5197 18.0662C23.5636 18.211 23.6043 18.34 23.6417 18.4534C23.8267 19.0232 23.8828 19.2141 23.6567 19.903C23.3736 19.9536 23.111 20.0846 22.9004 20.2804C22.8304 20.3488 22.7899 20.4418 22.7877 20.5396C22.7854 20.6374 22.8215 20.7322 22.8882 20.8037C22.9549 20.8753 23.047 20.9178 23.1447 20.9223C23.2425 20.9268 23.3381 20.8929 23.4111 20.8278ZM28.1772 18.5926C28.3996 18.5933 28.6193 18.5444 28.8205 18.4496C28.9103 18.4073 28.9797 18.331 29.0133 18.2376C29.047 18.1441 29.0421 18.0411 28.9998 17.9513C28.9575 17.8614 28.8812 17.792 28.7878 17.7584C28.6943 17.7248 28.5913 17.7296 28.5015 17.7719C28.3175 17.8564 28.1083 17.8681 27.916 17.8046C27.7238 17.7411 27.5627 17.6072 27.4651 17.4297C27.4429 17.3847 27.4118 17.3447 27.3738 17.312C27.3357 17.2792 27.2915 17.2545 27.2437 17.2392C27.1959 17.2239 27.1455 17.2183 27.0955 17.2229C27.0455 17.2274 26.997 17.242 26.9527 17.2657C26.9085 17.2894 26.8695 17.3218 26.838 17.3609C26.8065 17.3999 26.7832 17.445 26.7694 17.4932C26.7557 17.5415 26.7518 17.592 26.758 17.6419C26.7642 17.6917 26.7803 17.7397 26.8054 17.7832C26.9402 18.0348 27.1409 18.2332 27.3745 18.371C26.9724 19.3482 27.2008 20.386 27.3872 20.9364C27.4015 20.9847 27.4254 21.0296 27.4574 21.0685C27.4894 21.1073 27.529 21.1393 27.5736 21.1626C27.6183 21.1858 27.6672 21.1998 27.7174 21.2037C27.7676 21.2076 27.8181 21.2013 27.8658 21.1852C27.9136 21.1691 27.9576 21.1436 27.9952 21.1101C28.0328 21.0766 28.0633 21.0359 28.0848 20.9904C28.1063 20.9449 28.1185 20.8955 28.1204 20.8451C28.1224 20.7948 28.1142 20.7446 28.0964 20.6975C27.9706 20.3246 27.7265 19.3826 28.0949 18.5814C28.1233 18.5829 28.1495 18.5926 28.1772 18.5926ZM31.7693 25.6531C31.7664 25.604 31.7538 25.5558 31.7322 25.5116C31.7107 25.4673 31.6805 25.4277 31.6435 25.3952C31.6065 25.3627 31.5634 25.3378 31.5168 25.3221C31.4701 25.3063 31.4208 25.3 31.3716 25.3034C31.1921 25.3158 31.0119 25.2927 30.8413 25.2352C30.6707 25.1778 30.5132 25.0872 30.3777 24.9687C30.2423 24.8502 30.1315 24.7062 30.0519 24.5448C29.9723 24.3834 29.9253 24.2078 29.9137 24.0282C29.9051 23.9298 29.8588 23.8386 29.7843 23.7737C29.7099 23.7088 29.6132 23.6752 29.5146 23.68C29.4655 23.6833 29.4176 23.6963 29.3735 23.7182C29.3295 23.74 29.2901 23.7704 29.2578 23.8074C29.2255 23.8445 29.2008 23.8876 29.1851 23.9342C29.1694 23.9808 29.1631 24.0301 29.1664 24.0791C29.1971 24.5209 29.3656 24.9193 29.6217 25.2435C29.0196 25.9519 28.2312 26.1533 27.7916 26.205C27.403 26.2514 27.063 26.2117 26.6699 26.1653C26.3097 26.1241 25.9024 26.0769 25.3984 26.0919L25.3947 26.0927C25.3797 25.8785 25.3288 25.5663 25.1663 25.3064C25.1104 25.2295 25.0274 25.1766 24.9341 25.1585C24.8407 25.1404 24.744 25.1585 24.6634 25.209C24.5829 25.2595 24.5245 25.3387 24.5001 25.4306C24.4757 25.5225 24.4871 25.6202 24.5321 25.704C24.6324 25.865 24.6511 26.1219 24.6511 26.2469C24.2737 26.3825 23.9472 26.5816 23.6522 26.7741C23.125 27.117 22.7095 27.3881 22.0842 27.2473C21.5181 27.1178 20.9513 27.0916 20.4705 27.159C20.3956 26.971 20.2773 26.7464 20.0946 26.5734C20.0224 26.5052 19.9261 26.4684 19.8268 26.4713C19.7275 26.4741 19.6334 26.5162 19.5652 26.5884C19.497 26.6606 19.4603 26.7569 19.4631 26.8562C19.4659 26.9555 19.508 27.0496 19.5802 27.1178C19.6446 27.1784 19.6955 27.2668 19.7367 27.3552C18.9108 27.6951 18.4967 28.2635 18.4772 28.2912C18.4375 28.3471 18.4139 28.4128 18.4091 28.4813C18.4043 28.5497 18.4184 28.6181 18.4498 28.679C18.4813 28.74 18.5289 28.7911 18.5875 28.8267C18.6461 28.8624 18.7134 28.8813 18.782 28.8812C18.8412 28.8815 18.8996 28.8677 18.9524 28.841C19.0053 28.8144 19.0511 28.7755 19.086 28.7277C19.0897 28.7217 19.5008 28.1714 20.3118 27.949C20.7311 27.8336 21.3324 27.8434 21.9187 27.9767C22.0827 28.0141 22.2347 28.0268 22.3822 28.0291C22.4519 28.1923 22.4788 28.3863 22.4826 28.4582C22.4879 28.5536 22.5296 28.6435 22.5991 28.7092C22.6686 28.7749 22.7606 28.8115 22.8562 28.8116L22.8764 28.8108C22.9752 28.8056 23.068 28.7615 23.1343 28.6881C23.2007 28.6147 23.2353 28.518 23.2306 28.4192C23.2183 28.2448 23.1856 28.0724 23.1333 27.9055C23.4785 27.7805 23.7788 27.585 24.0611 27.4016C24.4894 27.1223 24.8945 26.858 25.4239 26.8407C25.8672 26.825 26.2326 26.8677 26.5853 26.9089C26.9402 26.9501 27.2892 26.977 27.674 26.9545C27.7422 27.144 27.7369 27.3971 27.7265 27.4817C27.7201 27.5344 27.725 27.5879 27.7408 27.6386C27.7566 27.6893 27.7829 27.7361 27.8181 27.7759C27.8532 27.8157 27.8964 27.8476 27.9447 27.8696C27.9931 27.8916 28.0455 27.903 28.0986 27.9033C28.1894 27.9031 28.277 27.87 28.3452 27.8101C28.4134 27.7502 28.4575 27.6676 28.4693 27.5776C28.4964 27.332 28.4815 27.0835 28.4251 26.843C29.1083 26.6617 29.7205 26.2777 30.181 25.7415C30.5521 25.9711 30.9856 26.0792 31.4211 26.0507C31.5199 26.044 31.612 25.9984 31.6773 25.9239C31.7426 25.8493 31.7756 25.752 31.7693 25.6531Z" fill="#193167"/>
</g>
<defs>
<clipPath id="clip0_1636_4382">
<rect width="26.957" height="26.957" fill="white" transform="translate(9.53882 9.99713)"/>
</clipPath>
</defs>
</svg>
