<svg width="28" height="28" viewBox="0 0 28 28" fill="none" xmlns="http://www.w3.org/2000/svg">
<path fill-rule="evenodd" clip-rule="evenodd" d="M6.07914 21.0754C6.29576 20.8588 6.64669 20.8588 6.86328 21.0754C7.0799 21.292 7.0799 21.6429 6.86328 21.8595L1.48694 27.2355C1.27033 27.4521 0.919401 27.4521 0.702802 27.2355C0.486188 27.0189 0.486188 26.668 0.702802 26.4514L6.07914 21.0754ZM10.7191 20.1455L7.79334 17.2199L7.03375 17.9794L9.95948 20.905L10.7191 20.1455ZM20.8596 16.8358C19.3996 17.9809 17.7317 19.022 15.8559 19.9563C16.0147 20.9483 15.9309 21.9736 15.6046 23.0335C15.4299 23.6024 15.1844 24.1786 14.8681 24.7648C17.6826 23.1793 18.3628 22.7245 20.2907 21.1173C20.6026 20.2133 20.7918 19.3455 20.8654 18.5007C20.9159 17.939 20.913 17.3845 20.8596 16.8358ZM24.6573 3.24469C25.0357 3.62301 25.4949 3.89305 25.9888 4.04176C26.383 4.16017 26.7989 4.20349 27.2134 4.16306C27.3896 2.99052 27.4661 1.76744 27.443 0.493836C26.1563 0.470732 24.9187 0.550151 23.7332 0.730651C23.7 1.13207 23.7433 1.53209 23.8588 1.91184C24.0076 2.4086 24.2775 2.86634 24.6573 3.24469ZM7.97822 12.0863C8.91253 10.212 9.95227 8.54421 11.0974 7.0844C10.553 7.03242 10.0028 7.03098 9.44251 7.07863C8.5977 7.15227 7.72983 7.34144 6.82584 7.65335C5.21855 9.58108 4.76225 10.2627 3.17807 13.0756C3.76436 12.7594 4.34199 12.5139 4.90953 12.3391C5.96661 12.0128 6.98902 11.9289 7.97822 12.0863ZM16.166 8.25957C17.1364 7.2892 18.7091 7.2892 19.678 8.25957C20.6485 9.22994 20.6485 10.8025 19.678 11.7728C18.7076 12.7432 17.135 12.7432 16.166 11.7728C15.1956 10.8025 15.1956 9.22994 16.166 8.25957ZM23.9165 12.1743C21.4312 15.5071 17.6304 18.1958 12.5109 20.2404L7.69652 15.4263C8.03733 14.5743 8.39545 13.7599 8.7709 12.9801C8.78101 12.9613 8.78967 12.9426 8.79834 12.9238C9.8973 10.6582 11.1479 8.70297 12.5499 7.05685C12.56 7.0453 12.5716 7.03375 12.5817 7.02075C13.568 5.86843 14.6294 4.86775 15.7645 4.02155C17.8021 2.50244 20.0879 1.47289 22.6195 0.935691C22.6123 1.37755 22.6744 1.81365 22.8001 2.23096C23.0022 2.90098 23.3661 3.52191 23.8744 4.0302C24.3828 4.53848 25.0037 4.90382 25.6738 5.10452C26.1041 5.23448 26.5561 5.29512 27.0139 5.28502C26.4752 7.82935 25.4429 10.1267 23.9165 12.1743ZM7.93349 22.9294L4.36225 26.5004C4.14564 26.717 4.14564 27.0679 4.36225 27.2845C4.57886 27.5011 4.92979 27.5011 5.14639 27.2845L8.71763 23.7135C8.93424 23.4969 8.93424 23.1459 8.71763 22.9294C8.50102 22.7128 8.15009 22.7128 7.93349 22.9294ZM4.22369 19.2198L0.652451 22.7908C0.435837 23.0074 0.435837 23.3583 0.652451 23.5749C0.869064 23.7915 1.21999 23.7915 1.43659 23.5749L5.00927 20.0039C5.22589 19.7873 5.22589 19.4364 5.00927 19.2198C4.79122 19.0032 4.44029 19.0032 4.22369 19.2198Z" fill="#2563EB"/>
</svg>
