<svg width="46" height="47" viewBox="0 0 46 47" fill="none" xmlns="http://www.w3.org/2000/svg">
<circle cx="22.9684" cy="23.4757" r="22.3238" stroke="#D3D3D3" stroke-width="0.842407"/>
<path d="M14.6441 27.4398C15.3009 27.4398 15.8334 27.0848 15.8334 26.6469C15.8334 26.209 15.3009 25.8541 14.6441 25.8541C13.9873 25.8541 13.4548 26.209 13.4548 26.6469C13.4548 27.0848 13.9873 27.4398 14.6441 27.4398Z" fill="#2563EB"/>
<path d="M10.2842 29.3385C10.2842 29.4658 10.3356 29.5878 10.4271 29.6778C10.5186 29.7678 10.6427 29.8184 10.7721 29.8184H35.1676C35.297 29.8184 35.4211 29.7678 35.5126 29.6778C35.6041 29.5878 35.6555 29.4658 35.6555 29.3385V11.5828H10.2842V29.3385ZM23.3148 26.5998C23.3614 26.6441 23.3986 26.697 23.4241 26.7556C23.4497 26.8141 23.4632 26.8771 23.4637 26.9408C23.4643 27.0045 23.4519 27.0677 23.4274 27.1267C23.4029 27.1857 23.3666 27.2393 23.3208 27.2843C23.275 27.3294 23.2205 27.365 23.1606 27.3891C23.1006 27.4133 23.0364 27.4254 22.9716 27.4248C22.9068 27.4243 22.8428 27.4111 22.7833 27.3859C22.7237 27.3608 22.6699 27.3242 22.6249 27.2784L21.5061 26.178L20.3873 27.2784C20.2953 27.3658 20.1721 27.4141 20.0441 27.4131C19.9162 27.412 19.7938 27.3615 19.7034 27.2725C19.6129 27.1835 19.5616 27.0632 19.5605 26.9374C19.5594 26.8115 19.6085 26.6903 19.6974 26.5998L20.8162 25.4994L19.6974 24.3991C19.6085 24.3085 19.5594 24.1873 19.5605 24.0615C19.5616 23.9357 19.6129 23.8153 19.7034 23.7263C19.7938 23.6374 19.9162 23.5869 20.0441 23.5858C20.1721 23.5847 20.2953 23.6331 20.3873 23.7205L21.5061 24.8209L22.6249 23.7205C22.7169 23.6331 22.8401 23.5847 22.9681 23.5858C23.096 23.5869 23.2184 23.6374 23.3088 23.7263C23.3993 23.8153 23.4506 23.9357 23.4517 24.0615C23.4528 24.1873 23.4037 24.3085 23.3148 24.3991L22.196 25.4994L23.3148 26.5998ZM30.6334 27.5596C30.68 27.6038 30.7172 27.6568 30.7428 27.7153C30.7683 27.7739 30.7818 27.8369 30.7824 27.9006C30.7829 27.9643 30.7706 28.0275 30.7461 28.0865C30.7215 28.1454 30.6853 28.199 30.6395 28.2441C30.5937 28.2891 30.5392 28.3248 30.4792 28.3489C30.4193 28.373 30.355 28.3852 30.2902 28.3846C30.2255 28.3841 30.1614 28.3708 30.1019 28.3457C30.0424 28.3205 29.9885 28.284 29.9435 28.2381L28.8248 27.1378L27.706 28.2381C27.614 28.3255 27.4907 28.3739 27.3628 28.3728C27.2348 28.3717 27.1125 28.3213 27.022 28.2323C26.9316 28.1433 26.8802 28.023 26.8791 27.8971C26.878 27.7713 26.9272 27.6501 27.0161 27.5596L28.1348 26.4592L27.0161 25.3588C26.9272 25.2683 26.878 25.1471 26.8791 25.0213C26.8802 24.8954 26.9316 24.7751 27.022 24.6861C27.1125 24.5971 27.2348 24.5467 27.3628 24.5456C27.4907 24.5445 27.614 24.5929 27.706 24.6803L28.8248 25.7806L29.9435 24.6803C30.0355 24.5929 30.1588 24.5445 30.2867 24.5456C30.4147 24.5467 30.537 24.5971 30.6275 24.6861C30.718 24.7751 30.7693 24.8954 30.7704 25.0213C30.7715 25.1471 30.7223 25.2683 30.6334 25.3588L29.5147 26.4592L30.6334 27.5596ZM29.9435 14.1228C30.035 14.0328 30.1591 13.9823 30.2885 13.9823C30.4179 13.9823 30.5419 14.0328 30.6334 14.1228L30.7237 14.2116L31.8498 12.7345C31.9274 12.6327 32.043 12.5654 32.1711 12.5474C32.2992 12.5294 32.4293 12.5621 32.5329 12.6385C32.6364 12.7149 32.7048 12.8286 32.7231 12.9546C32.7414 13.0805 32.7081 13.2085 32.6304 13.3104L31.1667 15.2299C31.1249 15.2851 31.0715 15.3308 31.0101 15.364C30.9487 15.3971 30.8808 15.4168 30.811 15.4218H30.7764C30.647 15.4218 30.5229 15.3712 30.4314 15.2812L29.9435 14.8014C29.8521 14.7114 29.8007 14.5893 29.8007 14.4621C29.8007 14.3348 29.8521 14.2128 29.9435 14.1228ZM19.2095 15.7611C19.1206 15.6706 19.0715 15.5494 19.0726 15.4236C19.0737 15.2977 19.125 15.1774 19.2155 15.0884C19.3059 14.9994 19.4283 14.949 19.5562 14.9479C19.6841 14.9468 19.8074 14.9952 19.8994 15.0826L21.0182 16.1829L22.137 15.0826C22.229 14.9952 22.3522 14.9468 22.4802 14.9479C22.6081 14.949 22.7305 14.9994 22.8209 15.0884C22.9114 15.1774 22.9627 15.2977 22.9638 15.4236C22.9649 15.5494 22.9158 15.6706 22.8269 15.7611L21.7081 16.8615L22.8269 17.9619C22.8735 18.0061 22.9106 18.0591 22.9362 18.1176C22.9618 18.1762 22.9752 18.2392 22.9758 18.3029C22.9764 18.3666 22.964 18.4298 22.9395 18.4888C22.915 18.5477 22.8787 18.6013 22.8329 18.6464C22.7871 18.6914 22.7326 18.7271 22.6727 18.7512C22.6127 18.7753 22.5485 18.7875 22.4837 18.7869C22.4189 18.7864 22.3549 18.7731 22.2953 18.748C22.2358 18.7228 22.182 18.6863 22.137 18.6404L21.0182 17.5401L19.8994 18.6404C19.8074 18.7278 19.6841 18.7762 19.5562 18.7751C19.4283 18.774 19.3059 18.7236 19.2155 18.6346C19.125 18.5456 19.0737 18.4253 19.0726 18.2994C19.0715 18.1736 19.1206 18.0524 19.2095 17.9619L20.3283 16.8615L19.2095 15.7611ZM14.1875 24.6078V23.5799C14.1882 22.8165 14.4969 22.0846 15.0457 21.5448C15.5946 21.0049 16.3387 20.7013 17.1149 20.7006H28.8248C29.3424 20.7006 29.8388 20.4983 30.2048 20.1384C30.5708 19.7784 30.7764 19.2901 30.7764 18.781V18.0199L30.1455 18.6404C30.0535 18.7278 29.9303 18.7762 29.8023 18.7751C29.6744 18.774 29.552 18.7236 29.4616 18.6346C29.3711 18.5456 29.3198 18.4253 29.3187 18.2994C29.3176 18.1736 29.3667 18.0524 29.4556 17.9619L30.9193 16.5222C31.0108 16.4323 31.1349 16.3817 31.2643 16.3817C31.3937 16.3817 31.5178 16.4323 31.6093 16.5222L33.073 17.9619C33.1196 18.0061 33.1568 18.0591 33.1823 18.1176C33.2079 18.1762 33.2214 18.2392 33.2219 18.3029C33.2225 18.3666 33.2101 18.4298 33.1856 18.4888C33.1611 18.5477 33.1248 18.6013 33.079 18.6464C33.0332 18.6914 32.9787 18.7271 32.9188 18.7512C32.8588 18.7753 32.7946 18.7875 32.7298 18.7869C32.665 18.7864 32.601 18.7731 32.5415 18.748C32.4819 18.7228 32.4281 18.6863 32.3831 18.6404L31.7522 18.0199V18.781C31.7514 19.5444 31.4428 20.2764 30.8939 20.8162C30.3451 21.356 29.6009 21.6596 28.8248 21.6603H17.1149C16.5973 21.6603 16.1009 21.8626 15.7349 22.2226C15.3689 22.5826 15.1633 23.0708 15.1633 23.5799V24.6078C15.6232 24.7246 16.024 25.0024 16.2906 25.3891C16.5572 25.7757 16.6713 26.2448 16.6115 26.7083C16.5516 27.1717 16.3219 27.5978 15.9655 27.9067C15.6091 28.2155 15.1504 28.3859 14.6754 28.3859C14.2004 28.3859 13.7416 28.2155 13.3852 27.9067C13.0288 27.5978 12.7991 27.1717 12.7393 26.7083C12.6794 26.2448 12.7935 25.7757 13.0601 25.3891C13.3267 25.0024 13.7275 24.7246 14.1875 24.6078Z" fill="#2563EB"/>
<path d="M26.1404 31.4042L28.6387 36.5377C28.7295 36.7103 28.8866 36.8432 29.0776 36.909C29.2686 36.9748 29.4789 36.9685 29.6651 36.8913C29.8486 36.8088 29.9902 36.6607 30.0591 36.4794C30.128 36.298 30.1184 36.0981 30.0326 35.9234L27.835 31.4042H26.1404Z" fill="#2563EB"/>
<path d="M15.9043 35.9219C15.8619 36.0091 15.8382 36.1033 15.8343 36.1992C15.8304 36.2952 15.8466 36.3909 15.8818 36.4809C15.917 36.5709 15.9706 36.6534 16.0395 36.7238C16.1084 36.7941 16.1912 36.8509 16.2833 36.8908C16.384 36.9322 16.4925 36.9538 16.6023 36.9541C16.749 36.9539 16.8927 36.9141 17.0164 36.8393C17.1402 36.7646 17.239 36.6579 17.3012 36.5319L19.798 31.4042H18.1021L15.9043 35.9219Z" fill="#2563EB"/>
<path d="M9.49097 9.99713V10.79H9.97233H35.9661H36.448L36.4475 9.99713H9.49097Z" fill="#2563EB"/>
</svg>
